<?xml version="1.0" encoding="UTF-8"?>
<svg version="1.1" width="31px" height="31px" viewBox="0 0 31.0 31.0" xmlns="http://www.w3.org/2000/svg" xmlns:xlink="http://www.w3.org/1999/xlink">
<defs>
<clipPath id="i0">
<path d="M15.5,0 C24.0604136,0 31,6.93958638 31,15.5 C31,24.0604136 24.0604136,31 15.5,31 C6.93958638,31 0,24.0604136 0,15.5 C0,6.93958638 6.93958638,0 15.5,0 Z M17.9502563,7.94677734 L13.5447848,7.94677734 C12.338938,7.94677734 11.1690094,8.38274705 10.2274058,9.18298353 C8.96768159,10.2535669 8.234375,11.8744003 8.234375,13.5881797 L8.234375,15.0683768 C8.234375,15.5857579 8.77697634,15.7198473 9.03054211,15.4832959 L12.2630212,12.7495353 C13.045464,12.1189062 13.6624319,12.0858266 14.1393321,12.0753572 L17.9502563,12.0753572 C19.0234356,12.0753572 19.8934326,12.9995521 19.8934326,14.1396471 C19.8934326,15.2797117 19.0234356,16.2039371 17.9502563,16.2039371 L14.2124616,16.2039371 C13.4926028,16.2039371 12.7982028,16.4869141 12.2630212,16.9983606 L8.47738338,20.5883163 C8.1556135,20.8958537 8.1556135,21.4622339 8.47738338,21.7697409 L12.3001622,24.7942395 C12.7443597,25.090633 13.0943127,24.7023169 13.0943127,24.3812375 L13.0943127,20.848559 C13.0943127,20.5635429 13.3118048,20.3324865 13.5800996,20.3324865 L17.9502563,20.3324865 C21.1698229,20.3324865 23.7797852,17.5598714 23.7797852,14.1396471 C23.7797852,10.7194229 21.1698229,7.94677734 17.9502563,7.94677734 Z">
</path>
</clipPath>
</defs>
<g clip-path="url(#i0)"><polygon points="0,0 31,0 31,31 0,31 0,0" stroke="none" fill="#FFFFFF"></polygon>
</g>
</svg>